<?xml version="1.0" encoding="UTF-8" standalone="no"?>
<svg
   width="20"
   height="20"
   viewBox="0 0 20 20"
   version="1.1"
   id="svg4"
   sodipodi:docname="busta.svg"
   inkscape:version="1.1.1 (3bf5ae0d25, 2021-09-20)"
   xmlns:inkscape="http://www.inkscape.org/namespaces/inkscape"
   xmlns:sodipodi="http://sodipodi.sourceforge.net/DTD/sodipodi-0.dtd"
   xmlns="http://www.w3.org/2000/svg"
   xmlns:svg="http://www.w3.org/2000/svg">
  <defs
     id="defs8" />
  <sodipodi:namedview
     id="namedview6"
     pagecolor="#ffffff"
     bordercolor="#666666"
     borderopacity="1.0"
     inkscape:pageshadow="2"
     inkscape:pageopacity="0.0"
     inkscape:pagecheckerboard="0"
     showgrid="false"
     inkscape:zoom="20.6"
     inkscape:cx="9.4660194"
     inkscape:cy="12.160194"
     inkscape:window-width="1920"
     inkscape:window-height="1009"
     inkscape:window-x="-8"
     inkscape:window-y="-8"
     inkscape:window-maximized="1"
     inkscape:current-layer="svg4" />
  <path
     id="path1198"
     style="color:#000000;fill-opacity:1;stroke-width:0.039083;stroke-linecap:round;-inkscape-stroke:none"
     d="M 3.3683279,0.4759215 A 1.3679045,1.3679045 0 0 0 2.0004229,1.843826 v 9.348544 a 1.3679045,1.3679045 0 0 0 0.0015,0.0077 v 2.200326 c 0,2.160186 1.783037,3.940663 3.943184,3.940663 h 8.1120841 c 2.160144,0 3.943184,-1.780477 3.943184,-3.940663 V 8.8981041 c 0,-2.1601847 -1.78304,-3.9406644 -3.943184,-3.9406644 H 5.9450829 c -0.421029,0 -0.826937,0.069442 -1.208903,0.194348 V 1.843826 A 1.3679045,1.3679045 0 0 0 3.3683239,0.4759215 Z m 2.576807,7.2172989 h 8.1120841 c 0.693262,0 1.207375,0.5144179 1.207375,1.2048557 v 4.5023289 c 0,0.690438 -0.514113,1.204855 -1.207375,1.204855 H 5.9451349 c -0.693262,0 -1.207375,-0.514417 -1.207375,-1.204855 V 8.8980761 c 0,-0.6904378 0.514113,-1.2048557 1.207375,-1.2048557 z m 0.98715,1.5360685 c -0.186863,0.455821 -0.292423,1.0846251 -0.292434,1.7417121 0,1.335596 0.427521,2.418337 0.95486,2.418337 0.527338,0 0.954785,-1.082741 0.954785,-2.418337 0,-0.221396 -0.01197,-0.441746 -0.03564,-0.654869 z m 6.1363341,2.35e-4 -1.581642,1.0866131 c -0.02367,0.213123 -0.03564,0.433474 -0.03564,0.654869 0,1.335597 0.427442,2.418336 0.954785,2.418336 0.527339,0 0.954864,-1.082739 0.954864,-2.418336 -1.6e-5,-0.656991 -0.105543,-1.2856741 -0.29236,-1.7414821 z" />
</svg>
