<?xml version="1.0" encoding="UTF-8" standalone="no"?>
<!-- Created with Inkscape (http://www.inkscape.org/) -->

<svg
   xmlns:dc="http://purl.org/dc/elements/1.1/"
   xmlns:cc="http://creativecommons.org/ns#"
   xmlns:rdf="http://www.w3.org/1999/02/22-rdf-syntax-ns#"
   xmlns:svg="http://www.w3.org/2000/svg"
   xmlns="http://www.w3.org/2000/svg"
   xmlns:sodipodi="http://sodipodi.sourceforge.net/DTD/sodipodi-0.dtd"
   xmlns:inkscape="http://www.inkscape.org/namespaces/inkscape"
   width="210mm"
   height="297mm"
   viewBox="0 0 210 297"
   version="1.1"
   id="svg8"
   inkscape:version="0.92+devel "
   sodipodi:docname="emojis.svg">
  <defs
     id="defs2">
    <clipPath
       clipPathUnits="userSpaceOnUse"
       id="clipPath4499">
      <path
         style="opacity:1;fill:#ffffff;fill-opacity:1;stroke:none;stroke-width:8.56168365;stroke-linecap:round;stroke-linejoin:round;stroke-miterlimit:4;stroke-dasharray:none;stroke-opacity:1;paint-order:markers stroke fill"
         d="m -266.63164,-5.0307715 -17.12336,10.3963301 -0.61155,29.3543434 4.58661,7.64436 -49.22968,59.931788 -5.19816,18.34646 10.09055,10.39633 0.0663,0.0125 1.76835,1.8221 27.09507,5.13367 -0.79847,9.84928 7.64436,14.06562 h 0.8373 l 0.99735,1.83465 h 56.26249 l -4.58662,-29.96589 -2.14042,-49.229685 -6.72704,-29.048569 5.92377,-16.766232 -1.33715,-20.53824 -7.64436,-17.73491598 -1.14427,-0.23291409 -0.69038,-1.60173243 z m -21.72313,117.9554715 1.23625,2.82542 -4.76758,-1.94214 z"
         id="path4501"
         inkscape:connector-curvature="0" />
    </clipPath>
    <clipPath
       clipPathUnits="userSpaceOnUse"
       id="clipPath4523">
      <path
         sodipodi:nodetypes="ccccccccccccccccc"
         inkscape:connector-curvature="0"
         id="path4525"
         d="m -266.23159,112.47692 -28.97283,15.5675 -27.24313,38.05387 -0.86485,33.29713 139.675,-1.29729 3.45944,-29.8377 -6.48645,-19.45936 -11.67563,-16.86478 15.13507,-23.78367 1.72973,-28.972828 -11.2432,-27.243109 -20.32421,-11.24319 -26.37827,0.432432 -20.32422,17.297212 -4.32429,23.351237 1.29728,20.756656 z"
         style="opacity:1;fill:#37abc8;fill-opacity:1;stroke:none;stroke-width:8.56168365;stroke-linecap:round;stroke-linejoin:round;stroke-miterlimit:4;stroke-dasharray:none;stroke-opacity:1;paint-order:markers stroke fill" />
    </clipPath>
  </defs>
  <sodipodi:namedview
     id="base"
     pagecolor="#245656"
     bordercolor="#666666"
     borderopacity="1.0"
     inkscape:pageopacity="0"
     inkscape:pageshadow="2"
     inkscape:zoom="0.70710678"
     inkscape:cx="-323.85857"
     inkscape:cy="834.88847"
     inkscape:document-units="px"
     inkscape:current-layer="layer1"
     showgrid="false"
     inkscape:snap-global="false"
     inkscape:window-width="1920"
     inkscape:window-height="1017"
     inkscape:window-x="-8"
     inkscape:window-y="-8"
     inkscape:window-maximized="1"
     inkscape:document-rotation="0" />
  <metadata
     id="metadata5">
    <rdf:RDF>
      <cc:Work
         rdf:about="">
        <dc:format>image/svg+xml</dc:format>
        <dc:type
           rdf:resource="http://purl.org/dc/dcmitype/StillImage" />
        <dc:title />
      </cc:Work>
    </rdf:RDF>
  </metadata>
  <g
     inkscape:label="Camada 1"
     inkscape:groupmode="layer"
     id="layer1">
    <g
       id="g4632"
       transform="matrix(2.8132841,0,0,2.8132841,132.03634,-285.65993)"
       inkscape:export-xdpi="96"
       inkscape:export-ydpi="96">
      <path
         style="fill:#f6cd28;fill-opacity:1;stroke:#000000;stroke-width:2.64583325;stroke-miterlimit:4;stroke-dasharray:none;paint-order:markers stroke fill"
         d="m -63.197898,111.23705 c -1.975551,-0.0311 -2.962947,3.75162 -3.000333,10.70581 -1.277453,1.49755 -2.059462,3.25867 -2.271696,5.11597 -0.0014,0.0174 -0.0028,0.0348 -0.0041,0.0522 l -1.669666,-0.42323 c -0.063,-0.0167 -0.128149,-0.0239 -0.193271,-0.0212 -0.751357,0.0332 -0.855812,1.10321 -0.125055,1.28106 l 1.956985,0.49558 c 0.01116,0.29064 0.03616,0.58129 0.07493,0.87126 l -1.951818,0.24082 c -0.875261,0.0939 -0.713904,1.41106 0.158131,1.29087 l 2.058271,-0.25424 c 0.07346,0.26826 0.158785,0.53458 0.255799,0.79839 l -1.954403,0.54571 c -0.857631,0.22184 -0.496586,1.50991 0.351401,1.25367 l 2.143538,-0.59945 c 0.624464,1.17084 1.482075,2.25186 2.535245,3.19567 -1.511469,1.86877 -4.292986,3.14089 -4.400764,7.40834 0.142838,4.17691 3.458644,7.99255 8.816514,8.138 1.560823,0.0995 3.180239,-0.58246 4.782658,-0.96713 0.963485,1.66048 3.361417,1.58893 4.137215,0.1049 1.303787,1.01311 11.36714,1.46048 11.762073,-1.73271 0.249677,0.17283 0.46156,0.34546 0.624253,0.5116 0.718759,0.734 0.732642,1.13603 0.487825,1.67741 -0.244819,0.54138 -1.060513,1.32017 -2.628781,1.82832 -1.56827,0.50814 -3.825131,0.74161 -6.664192,0.38653 -0.807318,-0.12375 -1.557634,0.44322 -1.658813,1.25368 -0.101177,0.81046 0.486698,1.54463 1.299662,1.62315 3.177196,0.39737 5.834462,0.16966 7.917863,-0.50539 2.083398,-0.67506 3.658134,-1.80133 4.376994,-3.39101 0.718865,-1.58968 0.270623,-3.54489 -1.058334,-4.90203 -0.532304,-0.5436 -1.187471,-1.02422 -1.963705,-1.4428 0.403121,-4.09159 -1.967619,-7.94918 -5.8229,-10.23142 0.237987,-0.24898 0.462138,-0.5071 0.671793,-0.7736 l 1.938901,0.67438 c 0.821308,0.28954 1.251405,-0.94568 0.427881,-1.22886 l -1.61644,-0.56224 c 0.188173,-0.32437 0.356331,-0.65707 0.503846,-0.99684 l 1.969905,0.48886 c 0.85559,0.23414 1.179649,-1.06689 0.314193,-1.26142 l -1.8464,-0.45837 c 0.079,-0.29068 0.143478,-0.58446 0.19327,-0.88057 l 1.639694,-0.12196 c 0.869631,-0.0319 0.816645,-1.33782 -0.05271,-1.29914 -0.015,1.5e-4 -0.03,8.1e-4 -0.04496,0.002 l -1.3994,0.10387 c 0.04269,-2.0077 -0.578083,-4.00997 -1.794721,-5.7888 2.981068,-12.4462 -0.142529,-13.0365 -8.109067,-5.40174 -0.676239,-0.1734 -1.365707,-0.30231 -2.061887,-0.3855 -0.748789,-0.0848 -1.502216,-0.11646 -2.252059,-0.0946 -0.316585,0.013 -0.632017,0.0356 -0.945679,0.0677 -2.500315,-4.31128 -4.467,-6.36766 -5.907132,-6.39134 z"
         id="path4621"
         inkscape:connector-curvature="0"
         sodipodi:nodetypes="ccccccccccccccccccccccccccccccccccccccccccccccccccccc" />
      <path
         inkscape:connector-curvature="0"
         id="path4600"
         d="m -63.727065,110.70788 c -1.975551,-0.0311 -2.962947,3.75162 -3.000333,10.70581 -1.277453,1.49755 -2.059462,3.25867 -2.271696,5.11597 -0.0014,0.0174 -0.0028,0.0348 -0.0041,0.0522 l -1.669666,-0.42323 c -0.063,-0.0167 -0.128149,-0.0239 -0.193271,-0.0212 -0.751357,0.0332 -0.855812,1.10321 -0.125055,1.28106 l 1.956985,0.49558 c 0.01116,0.29064 0.03616,0.58129 0.07493,0.87126 l -1.951818,0.24082 c -0.875261,0.0939 -0.713904,1.41106 0.158131,1.29087 l 2.058271,-0.25424 c 0.07346,0.26826 0.158785,0.53458 0.255799,0.79839 l -1.954403,0.54571 c -0.857631,0.22184 -0.496586,1.50991 0.351401,1.25367 l 2.143538,-0.59945 c 0.624464,1.17084 1.482075,2.25186 2.535245,3.19567 -1.511469,1.86877 -4.292986,3.14089 -4.400764,7.40834 0.142838,4.17691 3.458644,7.99255 8.816514,8.138 1.560823,0.0995 3.180239,-0.58246 4.782658,-0.96713 0.963485,1.66048 3.361417,1.58893 4.137215,0.1049 1.303787,1.01311 11.36714,1.46048 11.762073,-1.73271 0.249677,0.17283 0.46156,0.34546 0.624253,0.5116 0.718759,0.734 0.732642,1.13603 0.487825,1.67741 -0.244819,0.54138 -1.060513,1.32017 -2.628781,1.82832 -1.56827,0.50814 -3.825131,0.74161 -6.664192,0.38653 -0.807318,-0.12375 -1.557634,0.44322 -1.658813,1.25368 -0.101177,0.81046 0.486698,1.54463 1.299662,1.62315 3.177196,0.39737 5.834462,0.16966 7.917863,-0.50539 2.083398,-0.67506 3.658134,-1.80133 4.376994,-3.39101 0.718865,-1.58968 0.270623,-3.54489 -1.058334,-4.90203 -0.532304,-0.5436 -1.187471,-1.02422 -1.963705,-1.4428 0.403121,-4.09159 -1.967619,-7.94918 -5.8229,-10.23142 0.237987,-0.24898 0.462138,-0.5071 0.671793,-0.7736 l 1.938901,0.67438 c 0.821308,0.28954 1.251405,-0.94568 0.427881,-1.22886 l -1.61644,-0.56224 c 0.188173,-0.32437 0.356331,-0.65707 0.503846,-0.99684 l 1.969905,0.48886 c 0.85559,0.23414 1.179649,-1.06689 0.314193,-1.26142 l -1.8464,-0.45837 c 0.079,-0.29068 0.143478,-0.58446 0.19327,-0.88057 l 1.639694,-0.12196 c 0.869631,-0.0319 0.816645,-1.33782 -0.05271,-1.29914 -0.015,1.5e-4 -0.03,8.1e-4 -0.04496,0.002 l -1.3994,0.10387 c 0.04269,-2.0077 -0.578083,-4.00997 -1.794721,-5.7888 2.981068,-12.4462 -0.142529,-13.0365 -8.109067,-5.40174 -0.676239,-0.1734 -1.365707,-0.30231 -2.061887,-0.3855 -0.748789,-0.0848 -1.502216,-0.11646 -2.252059,-0.0946 -0.316585,0.013 -0.632017,0.0356 -0.945679,0.0677 -2.500315,-4.31128 -4.467,-6.36766 -5.907132,-6.39134 z"
         style="fill:#f6cd28;fill-opacity:1;stroke:#ffffff;stroke-width:2.64583325;stroke-miterlimit:4;stroke-dasharray:none;paint-order:markers stroke fill"
         sodipodi:nodetypes="ccccccccccccccccccccccccccccccccccccccccccccccccccccc" />
      <g
         transform="translate(11.141965,-33.997152)"
         id="g4619">
        <path
           inkscape:connector-curvature="0"
           style="fill:#f6cd28;fill-opacity:1;stroke:none;stroke-width:1.09858847"
           d="m -282.96875,546.91797 c -7.46799,-0.12037 -11.20047,14.17701 -11.3418,40.46289 a 49.999991,41.428561 6.4575321 0 0 -8.58593,19.33594 49.999991,41.428561 6.4575321 0 0 -0.0137,0.19726 l -6.31054,-1.59961 a 2.4569385,2.4569385 0 0 0 -0.73047,-0.0801 2.4569385,2.4569385 0 0 0 -0.47266,4.84179 l 7.39649,1.87305 a 49.999991,41.428561 6.4575321 0 0 0.2832,3.29297 l -7.37695,0.91015 a 2.4579537,2.4579537 0 1 0 0.59765,4.87891 l 7.7793,-0.96094 a 49.999991,41.428561 6.4575321 0 0 0.9668,3.01758 l -7.38672,2.0625 a 2.4609492,2.4609492 0 1 0 1.32812,4.73828 l 8.10156,-2.26562 a 49.999991,41.428561 6.4575321 0 0 17.80079,18.16601 c -5.50816,5.81315 -9.1007,12.98383 -10,20.92774 -0.21224,2.01303 -0.24619,4.04255 -0.10157,6.07226 10.05667,-4.13502 21.67522,-6.33151 33.53516,-6.33984 8.42006,0.008 -13.29927,8.94651 -5.53906,11.0957 l 6.07422,12.47461 2.57031,4.77149 c 3.63673,6.28868 12.71043,6.02087 15.64453,0.4082 4.9277,3.8291 42.96242,5.51991 44.45508,-6.54883 0.94366,0.65321 1.74448,1.30566 2.35937,1.93359 2.71657,2.77418 2.76904,4.29369 1.84375,6.33985 -0.92529,2.04616 -4.00823,4.98959 -9.93554,6.91015 -5.92732,1.92053 -14.45719,2.80294 -25.1875,1.46094 -3.05128,-0.46776 -5.88713,1.67513 -6.26954,4.73828 -0.3824,3.06314 1.83949,5.838 4.91211,6.13477 12.0083,1.50187 22.05152,0.64121 29.92579,-1.91016 7.87426,-2.55141 13.82601,-6.80816 16.54296,-12.8164 2.71697,-6.00821 1.02283,-13.398 -4,-18.52735 -2.01186,-2.05453 -4.48807,-3.87111 -7.42187,-5.45312 1.52361,-15.4643 -7.43667,-30.0441 -22.00781,-38.66992 a 49.999991,41.428561 6.4575321 0 0 2.53906,-2.92383 l 7.32812,2.54883 a 2.4590168,2.4590168 0 1 0 1.61719,-4.64454 l -6.10937,-2.125 a 49.999991,41.428561 6.4575321 0 0 1.90429,-3.76757 l 7.44532,1.84765 a 2.4572691,2.4572691 0 1 0 1.1875,-4.76758 l -6.97852,-1.73242 a 49.999991,41.428561 6.4575321 0 0 0.73047,-3.32812 l 6.19726,-0.46094 a 2.4570997,2.4570997 0 1 0 -0.19921,-4.91016 2.4569385,2.4569385 0 0 0 -0.16993,0.008 l -5.28906,0.39257 a 49.999991,41.428561 6.4575321 0 0 -6.7832,-21.8789 c 11.26703,-47.04072 -0.53869,-49.27179 -30.64844,-20.41602 a 49.999991,41.428561 6.4575321 0 0 -7.79297,-1.45703 49.999991,41.428561 6.4575321 0 0 -8.51172,-0.35742 49.999991,41.428561 6.4575321 0 0 -3.57421,0.25586 c -9.4511,-16.29648 -16.88494,-24.06852 -22.32813,-24.15625 z"
           transform="scale(0.26458333)"
           id="path21" />
        <path
           inkscape:connector-curvature="0"
           style="fill:#fae7b5;fill-opacity:1;stroke:none;stroke-width:0.99999994px;stroke-linecap:butt;stroke-linejoin:miter;stroke-opacity:1"
           d="m -279.92773,560.83594 c -4.26269,-0.25364 -5.3187,7.79178 -5.09961,18.4375 a 49.999993,41.428563 6.4575321 0 1 17.15429,-7.08985 c -5.5383,-7.83605 -9.41302,-11.19047 -12.05468,-11.34765 z m 61.75195,6.38281 c -3.02047,-0.12982 -7.67042,3.48992 -12.91016,8.74609 a 49.999993,41.428563 6.4575321 0 1 15.24805,10.27149 c 2.51303,-13.59876 1.20069,-18.86549 -2.33789,-19.01758 z"
           transform="scale(0.26458333)"
           id="path4534" />
        <path
           inkscape:connector-curvature="0"
           style="fill:#23252f;fill-opacity:1;stroke:none;stroke-width:0.99999994px;stroke-linecap:butt;stroke-linejoin:miter;stroke-opacity:1"
           d="m -219.25781,671.15234 c -3.23011,-0.15599 -7.64845,3.54024 -9.79492,11.95118 -8.18241,0.45924 -13.95431,8.0203 -5.85743,13.53125 0.55624,0.13081 1.12856,0.25934 1.76758,0.375 -2.3517,-4.31782 -0.3446,-9.08533 5.29102,-9.42383 7.53605,-0.66123 1.64001,-8.87909 11.30078,-15.02539 -0.68459,-0.87631 -1.63033,-1.35621 -2.70703,-1.40821 z"
           transform="scale(0.26458333)"
           id="path4546" />
        <path
           inkscape:connector-curvature="0"
           style="fill:#23252f;fill-opacity:1;stroke:none;stroke-width:5.47806883;stroke-linecap:round;stroke-miterlimit:4;stroke-dasharray:none"
           d="m -255.90625,618.75781 c -3.22858,-0.0239 -5.71651,0.78841 -5.89258,3.22266 -0.16017,2.214 1.70671,4.23457 4.4375,5.11133 -0.39891,2.28006 -1.53377,3.88324 -2.79883,4.6289 -1.56207,0.9207 -3.34893,0.92933 -5.52148,-1.10156 a 2.0139753,2.0139753 0 1 0 -2.75391,2.93945 c 3.17058,2.9638 7.29279,3.40755 10.32032,1.62305 1.08102,-0.63715 1.81123,-1.73861 2.56835,-2.79687 0.56459,1.22793 1.12442,2.47614 2.11133,3.32226 2.66802,2.28733 6.80447,2.57544 10.44532,0.21289 a 2.0147704,2.0147704 0 1 0 -2.19141,-3.38086 c -2.4948,1.61877 -4.25624,1.29145 -5.63281,0.11133 -1.14715,-0.98346 -1.99893,-2.82963 -1.93946,-5.24219 2.79509,-0.49062 4.90168,-2.21168 5.06055,-4.4082 0.2013,-2.78253 -2.89349,-3.90228 -6.78906,-4.18359 -0.48685,-0.0352 -0.9626,-0.0552 -1.42383,-0.0586 z"
           transform="scale(0.26458333)"
           id="path4552" />
        <path
           inkscape:connector-curvature="0"
           style="fill:#23252f;fill-opacity:1;stroke:none;stroke-width:5.05327797;stroke-linecap:round;stroke-miterlimit:4;stroke-dasharray:none"
           d="m -274.42188,582.07617 c -5.93046,-0.0302 -12.0873,1.08825 -17.59765,3.63281 a 3.5247619,3.5247619 0 1 0 2.95117,6.4004 c 8.64603,-3.99258 21.1278,-3.39724 28.03711,-0.35547 a 3.524997,3.524997 0 1 0 2.8418,-6.45118 c -4.60122,-2.02552 -10.30195,-3.19798 -16.23243,-3.22656 z m -1.47851,16.22852 a 8.7125655,10.85914 4.1372889 0 0 -8.85742,10.2207 8.7125655,10.85914 4.1372889 0 0 7.9082,11.45899 8.7125655,10.85914 4.1372889 0 0 9.47266,-10.20313 8.7125655,10.85914 4.1372889 0 0 -7.90625,-11.45898 8.7125655,10.85914 4.1372889 0 0 -0.61719,-0.0176 z m 45.23633,0.53125 c -5.23115,-0.0567 -10.60107,0.78446 -15.53711,2.74414 a 3.5247619,3.5247619 0 1 0 2.59961,6.54687 c 2.1654,-0.85969 4.54599,-1.42726 7.0039,-1.75195 a 8.7125655,10.85914 4.1372889 0 0 -2.31445,6.50195 8.7125655,10.85914 4.1372889 0 0 7.9082,11.45899 8.7125655,10.85914 4.1372889 0 0 9.47266,-10.20117 8.7125655,10.85914 4.1372889 0 0 -1.6543,-7.29883 c 2.89345,0.56916 5.51797,1.4179 7.59766,2.47265 a 3.52582,3.52582 0 1 0 3.18945,-6.28906 c -4.48364,-2.27399 -10.11315,-3.7528 -16.0332,-4.10547 -0.74001,-0.0441 -1.48511,-0.07 -2.23242,-0.0781 z"
           transform="scale(0.26458333)"
           id="path4555" />
        <path
           inkscape:connector-curvature="0"
           style="color:#000000;font-style:normal;font-variant:normal;font-weight:normal;font-stretch:normal;font-size:medium;line-height:normal;font-family:sans-serif;font-variant-ligatures:normal;font-variant-position:normal;font-variant-caps:normal;font-variant-numeric:normal;font-variant-alternates:normal;font-feature-settings:normal;text-indent:0;text-align:start;text-decoration:none;text-decoration-line:none;text-decoration-style:solid;text-decoration-color:#000000;letter-spacing:normal;word-spacing:normal;text-transform:none;writing-mode:lr-tb;direction:ltr;text-orientation:mixed;dominant-baseline:auto;baseline-shift:baseline;text-anchor:start;white-space:normal;shape-padding:0;clip-rule:nonzero;display:inline;overflow:visible;visibility:visible;opacity:1;isolation:auto;mix-blend-mode:normal;color-interpolation:sRGB;color-interpolation-filters:linearRGB;solid-color:#000000;solid-opacity:1;vector-effect:none;fill:#f5900c;fill-opacity:1;fill-rule:nonzero;stroke:none;stroke-width:11.5842514;stroke-linecap:round;stroke-linejoin:miter;stroke-miterlimit:4;stroke-dasharray:none;stroke-dashoffset:0;stroke-opacity:1;color-rendering:auto;image-rendering:auto;shape-rendering:auto;text-rendering:auto;enable-background:accumulate"
           d="m -282.03125,613.34375 c -2.09872,0.004 -4.23584,1.7818 -6.11523,6.11914 11.15284,25.83277 -16.9696,21.66828 -17.64063,48.23828 0.53985,15.78673 13.07205,30.20806 33.32227,30.75781 7.07532,0.29158 14.55843,-2.81215 21.7832,-4.5468 4.65948,-1.05728 6.10763,-6.9832 2.46094,-10.07031 6.06088,-2.53564 6.34924,-11.01552 0.47461,-13.95703 5.70961,-3.5873 4.35823,-12.26426 -2.17188,-13.94532 l 29.13281,-6.84179 c 6.68834,-1.46678 5.74564,-11.28224 -1.09961,-11.44922 -0.52214,-0.0142 -1.04379,0.0423 -1.55078,0.16797 l -50.41015,11.83984 c -1.19456,-0.38354 -2.24999,-0.94173 -3.0625,-1.78125 10.75972,-7.2547 3.11041,-34.54799 -5.12305,-34.53125 z"
           transform="scale(0.26458333)"
           id="path4577"
           sodipodi:nodetypes="ccccccccccccccc" />
      </g>
    </g>
    <g
       inkscape:export-ydpi="96"
       inkscape:export-xdpi="96"
       transform="matrix(0.81140823,0,0,0.81140823,-118.71372,1.8518103)"
       id="g4459">
      <path
         transform="matrix(1.1556828,0,0,1.1556828,126.59426,-1.8261122)"
         id="path4445"
         d="m -183.82804,-111.72857 a 56.983809,56.983809 0 0 0 -14.05186,1.80919 3.7543769,3.7543769 0 0 0 -1.36012,-0.25528 h -4.70204 a 3.7543769,3.7543769 0 0 0 -3.65921,2.93677 3.7543769,3.7543769 0 0 0 -3.03496,-1.55081 h -4.45502 a 3.7543769,3.7543769 0 0 0 -3.75378,3.75378 v 0.62941 c -0.48393,-0.14389 -0.99097,-0.26598 -1.53685,-0.38395 -1.23,-0.27662 -2.49959,-0.41083 -3.7915,-0.41083 -2.70061,0 -5.24683,0.5416 -7.34839,2.01383 0,0 -5.2e-4,5.2e-4 -5.2e-4,5.2e-4 -1.99071,1.39248 -3.49539,3.885914 -3.49539,6.404253 0,1.018101 0.22849,2.069923 0.63303,3.053559 a 3.7543769,3.7543769 0 0 0 -0.69504,2.168345 v 3.662826 a 3.7543769,3.7543769 0 0 0 2.18643,3.411159 c 0.14153,0.06503 0.2844,0.126259 0.42839,0.18552 a 56.983809,56.983809 0 0 0 -1.82728,3.180683 c -0.58214,0.174829 -1.15731,0.367329 -1.72392,0.579811 a 3.7543769,3.7543769 0 0 0 -0.008,0.0031 c -3.24221,1.224327 -6.09021,3.020488 -8.39329,5.370729 0,0 -5.2e-4,5.19e-4 -5.2e-4,5.19e-4 0,0 -5.1e-4,5.16e-4 -5.1e-4,5.16e-4 -2.35673,2.403702 -4.15496,5.30652 -5.35782,8.574669 -1.20846,3.283381 -1.78542,6.875539 -1.78542,10.710974 0,4.077321 0.58916,7.812743 1.85726,11.15591 a 3.7543769,3.7543769 0 0 0 0.008,0.02119 c 1.2668,3.280103 3.10736,6.148435 5.50612,8.452196 2.37209,2.278145 5.22786,3.997833 8.42843,5.118034 a 3.7543769,3.7543769 0 0 0 0.008,0.0026 c 0.0557,0.01937 0.11205,0.03731 0.16795,0.05633 a 56.983809,56.983809 0 0 0 15.85639,20.526397 v 7.4780956 a 3.7543769,3.7543769 0 0 0 3.75378,3.75377592 h 4.45502 a 3.7543769,3.7543769 0 0 0 3.75378,-3.75377592 v -0.03514 a 56.983809,56.983809 0 0 0 23.93911,5.3428264 56.983809,56.983809 0 0 0 26.66504,-6.6683267 3.7543769,3.7543769 0 0 0 0.29765,0.016019 h 5.1847 a 3.7543769,3.7543769 0 0 0 3.23081,-5.6637363 56.983809,56.983809 0 0 0 15.64866,-19.457725 c 1.22251,-0.05451 2.30825,-0.157107 3.29437,-0.326597 1.40913,-0.242191 2.87866,-0.587028 4.41833,-1.029912 1.24087,-0.354769 2.43815,-0.779698 3.58841,-1.275889 1.01304,-0.436994 2.07311,-0.902645 3.18121,-1.397331 a 3.7543769,3.7543769 0 0 0 2.22363,-3.427698 v -10.440707 a 3.7543769,3.7543769 0 0 0 -3.75377,-3.753776 h -1.17306 a 3.7543769,3.7543769 0 0 0 -2.4939,0.947745 c -0.4441,0.394753 -1.06818,0.912519 -1.84899,1.526006 -0.6172,0.484944 -1.29372,0.949552 -2.02675,1.395264 a 56.983809,56.983809 0 0 0 0.54726,-7.427454 56.983809,56.983809 0 0 0 -0.86352,-9.838674 c 0.8302,0.50334 1.55734,0.999714 2.16731,1.478978 a 3.7543769,3.7543769 0 0 0 0.0336,0.02636 c 0.80392,0.616956 1.45193,1.139087 1.92444,1.544093 a 3.7543769,3.7543769 0 0 0 2.44326,0.903303 h 1.29036 a 3.7543769,3.7543769 0 0 0 3.75377,-3.753776 v -10.587469 a 3.7543769,3.7543769 0 0 0 -2.10788,-3.373953 c -0.87005,-0.424413 -1.85566,-0.863828 -2.95589,-1.324983 -1.24063,-0.550183 -2.58187,-1.024467 -4.02973,-1.435055 a 3.7543769,3.7543769 0 0 0 -0.0605,-0.01654 c -1.42307,-0.378002 -2.93933,-0.667816 -4.55218,-0.881083 -1.32676,-0.193337 -2.74171,-0.301562 -4.24728,-0.340029 a 56.983809,56.983809 0 0 0 -4.146,-6.429582 v -4.464328 c 0.0994,0.0057 0.13711,0.0034 0.2589,0.01292 0.27113,0.02126 0.41787,0.105217 -0.0243,-0.04858 a 3.7543769,3.7543769 0 0 0 1.23351,0.208256 h 0.39585 a 3.7543769,3.7543769 0 0 0 3.75377,-3.753776 v -4.244176 a 3.7543769,3.7543769 0 0 0 -3.33933,-3.73104 c -0.26018,-0.0289 -0.51348,-0.0458 -0.77773,-0.0568 -0.23892,-0.01 -0.46531,-0.0155 -0.68833,-0.0155 -0.9793,0 -1.89909,0.2097 -2.78691,0.50178 a 3.7543769,3.7543769 0 0 0 -1.77922,-0.45217 h -4.45451 a 3.7543769,3.7543769 0 0 0 -3.08353,1.62057 c -1.92035,-1.4555 -4.37547,-2.05362 -6.86522,-2.05362 -0.36818,0 -0.73486,0.0153 -1.09915,0.0424 a 56.983809,56.983809 0 0 0 -26.3772,-6.52105 z m 43.12294,7.52202 c -0.005,0.002 -0.009,0.005 -0.0145,0.007 -0.007,0.003 -0.0136,0.004 -0.0201,0.006 z m -7.89357,1.77612 0.009,0.01 c -0.002,-0.002 -0.004,-0.003 -0.005,-0.005 -0.002,-0.002 -0.003,-0.004 -0.004,-0.005 z m 18.17563,27.922318 c 1.18104,0.169016 2.25659,0.382468 3.21635,0.636137 1.15037,0.327742 2.16069,0.688205 3.0179,1.069184 a 3.7543769,3.7543769 0 0 0 0.076,0.03307 c 0.19965,0.08349 0.32172,0.147646 0.51005,0.22841 v 1.701707 c -0.1846,-0.114025 -0.33043,-0.24039 -0.52038,-0.352951 a 3.7543769,3.7543769 0 0 0 -0.0258,-0.01499 c -1.2999,-0.756304 -2.69022,-1.384441 -4.15737,-1.888774 -0.59221,-0.203575 -1.19774,-0.368056 -1.81281,-0.497644 a 56.983809,56.983809 0 0 0 -0.30386,-0.914156 z m -108.15308,4.135665 a 56.983809,56.983809 0 0 0 -2.23553,15.627469 56.983809,56.983809 0 0 0 1.52239,12.775448 c -1.40665,-1.435809 -2.5377,-3.201273 -3.39927,-5.429126 -0.8797,-2.324563 -1.36529,-5.134038 -1.36529,-8.48062 0,-3.086 0.45937,-5.770227 1.32343,-8.117851 0.86948,-2.362374 2.0819,-4.288475 3.67419,-5.912299 a 3.7543769,3.7543769 0 0 0 10e-4,-0.001 c 0.15495,-0.158149 0.31624,-0.310864 0.47904,-0.461986 z m 114.97334,29.524295 v 1.405083 c -0.28406,0.123815 -0.59463,0.263295 -0.87075,0.382405 -0.84242,0.3634 -1.73595,0.681281 -2.68304,0.951881 a 3.7543769,3.7543769 0 0 0 -0.006,0.0021 c -0.83599,0.240491 -1.62407,0.43719 -2.37195,0.599964 a 56.983809,56.983809 0 0 0 0.27906,-0.92294 c 0.30741,-0.07708 0.61388,-0.159497 0.91777,-0.253215 1.62541,-0.49545 3.15927,-1.181049 4.5713,-2.053621 0.058,-0.03442 0.1062,-0.0769 0.16381,-0.111623 z m -87.34609,36.2758214 c 0.009,0.00281 0.0179,0.00291 0.0269,0.00568 0.008,0.0023 0.0146,0.00702 0.0222,0.0093 z"
         style="color:#000000;font-style:normal;font-variant:normal;font-weight:bold;font-stretch:normal;font-size:9.00960445px;line-height:1.25;font-family:sans-serif;-inkscape-font-specification:'sans-serif Bold';font-variant-ligatures:normal;font-variant-position:normal;font-variant-caps:normal;font-variant-numeric:normal;font-variant-alternates:normal;font-variant-east-asian:normal;font-feature-settings:normal;text-indent:0;text-align:start;text-decoration:none;text-decoration-line:none;text-decoration-style:solid;text-decoration-color:#000000;letter-spacing:normal;word-spacing:normal;text-transform:none;writing-mode:lr-tb;direction:ltr;text-orientation:mixed;dominant-baseline:auto;baseline-shift:baseline;text-anchor:start;white-space:normal;shape-padding:0;clip-rule:nonzero;display:inline;overflow:visible;visibility:visible;opacity:1;isolation:auto;mix-blend-mode:normal;color-interpolation:sRGB;color-interpolation-filters:linearRGB;solid-color:#000000;solid-opacity:1;vector-effect:none;fill:none;fill-opacity:1;fill-rule:nonzero;stroke:#000000;stroke-width:7.4083333;stroke-linecap:round;stroke-linejoin:round;stroke-miterlimit:4;stroke-dasharray:none;stroke-dashoffset:0;stroke-opacity:1;paint-order:markers stroke fill;color-rendering:auto;image-rendering:auto;shape-rendering:auto;text-rendering:auto;enable-background:accumulate"
         inkscape:connector-curvature="0"
         inkscape:export-xdpi="96"
         inkscape:export-ydpi="96" />
      <path
         inkscape:connector-curvature="0"
         style="color:#000000;font-style:normal;font-variant:normal;font-weight:bold;font-stretch:normal;font-size:9.00960445px;line-height:1.25;font-family:sans-serif;-inkscape-font-specification:'sans-serif Bold';font-variant-ligatures:normal;font-variant-position:normal;font-variant-caps:normal;font-variant-numeric:normal;font-variant-alternates:normal;font-variant-east-asian:normal;font-feature-settings:normal;text-indent:0;text-align:start;text-decoration:none;text-decoration-line:none;text-decoration-style:solid;text-decoration-color:#000000;letter-spacing:normal;word-spacing:normal;text-transform:none;writing-mode:lr-tb;direction:ltr;text-orientation:mixed;dominant-baseline:auto;baseline-shift:baseline;text-anchor:start;white-space:normal;shape-padding:0;clip-rule:nonzero;display:inline;overflow:visible;visibility:visible;opacity:1;isolation:auto;mix-blend-mode:normal;color-interpolation:sRGB;color-interpolation-filters:linearRGB;solid-color:#000000;solid-opacity:1;vector-effect:none;fill:#ffffff;fill-opacity:1;fill-rule:nonzero;stroke:#ffffff;stroke-width:28;stroke-linecap:round;stroke-linejoin:round;stroke-miterlimit:4;stroke-dasharray:none;stroke-dashoffset:0;stroke-opacity:1;paint-order:markers stroke fill;color-rendering:auto;image-rendering:auto;shape-rendering:auto;text-rendering:auto;enable-background:accumulate"
         d="m -700.7832,-428.28125 a 215.37188,215.37188 0 0 0 -53.10938,6.83789 14.189771,14.189771 0 0 0 -5.14062,-0.96484 h -17.77149 a 14.189771,14.189771 0 0 0 -13.83008,11.09961 14.189771,14.189771 0 0 0 -11.4707,-5.86133 h -16.83789 a 14.189771,14.189771 0 0 0 -14.1875,14.1875 v 2.3789 c -1.82902,-0.54386 -3.74542,-1.00529 -5.80859,-1.45117 -4.64881,-1.04549 -9.44727,-1.55273 -14.33008,-1.55273 -10.20703,0 -19.83053,2.047 -27.77344,7.61133 0,0 -0.002,0.002 -0.002,0.002 -7.52396,5.26292 -13.21094,14.68696 -13.21094,24.20508 0,3.84794 0.86359,7.82333 2.39258,11.54101 a 14.189771,14.189771 0 0 0 -2.62695,8.19532 v 13.84375 a 14.189771,14.189771 0 0 0 8.26367,12.89257 c 0.53492,0.24578 1.0749,0.4772 1.61914,0.70118 a 215.37188,215.37188 0 0 0 -6.90625,12.02148 c -2.20024,0.66077 -4.3741,1.38833 -6.51563,2.19141 a 14.189771,14.189771 0 0 0 -0.0293,0.0117 c -12.254,4.62738 -23.01809,11.41602 -31.72266,20.29882 0,0 -0.002,0.002 -0.002,0.002 0,0 -0.002,0.002 -0.002,0.002 -8.90731,9.08486 -15.70376,20.05614 -20.25,32.4082 -4.56743,12.40963 -6.74804,25.98629 -6.74804,40.48242 0,15.41035 2.22673,29.52848 7.01953,42.16407 a 14.189771,14.189771 0 0 0 0.0293,0.0801 c 4.78791,12.39724 11.74436,23.23818 20.81055,31.94531 8.96538,8.61031 19.75883,15.10992 31.85547,19.34375 a 14.189771,14.189771 0 0 0 0.0293,0.01 c 0.21068,0.0732 0.42352,0.141 0.63476,0.21289 a 215.37188,215.37188 0 0 0 59.92969,77.580082 v 28.263672 a 14.189771,14.189771 0 0 0 14.1875,14.1874998 h 16.83789 a 14.189771,14.189771 0 0 0 14.1875,-14.1874998 v -0.132813 a 215.37188,215.37188 0 0 0 90.47852,20.1933596 215.37188,215.37188 0 0 0 100.78125,-25.2031246 14.189771,14.189771 0 0 0 1.125,0.06055 h 19.5957 a 14.189771,14.189771 0 0 0 12.21094,-21.40625 215.37188,215.37188 0 0 0 59.14453,-73.541016 c 4.62054,-0.20603 8.72411,-0.59379 12.45117,-1.23438 5.32585,-0.91537 10.87997,-2.21869 16.69922,-3.89258 4.6899,-1.34086 9.21505,-2.94689 13.5625,-4.82226 3.82879,-1.65163 7.83535,-3.41157 12.02344,-5.28125 a 14.189771,14.189771 0 0 0 8.40429,-12.95508 v -39.46094 a 14.189771,14.189771 0 0 0 -14.1875,-14.1875 h -4.43359 a 14.189771,14.189771 0 0 0 -9.42578,3.58203 c -1.67847,1.49198 -4.03721,3.44889 -6.98828,5.76758 -2.33274,1.83286 -4.88965,3.58886 -7.66016,5.27344 a 215.37188,215.37188 0 0 0 2.06836,-28.07227 215.37188,215.37188 0 0 0 -3.26367,-37.18554 c 3.13775,1.90239 5.886,3.77845 8.1914,5.58984 a 14.189771,14.189771 0 0 0 0.12696,0.0996 c 3.03841,2.3318 5.48759,4.30521 7.27344,5.83594 a 14.189771,14.189771 0 0 0 9.23437,3.41406 h 4.87695 a 14.189771,14.189771 0 0 0 14.1875,-14.1875 v -40.01563 a 14.189771,14.189771 0 0 0 -7.96679,-12.75195 c -3.28838,-1.60408 -7.01354,-3.26486 -11.17188,-5.00781 -4.68899,-2.07943 -9.75826,-3.872 -15.23047,-5.42383 a 14.189771,14.189771 0 0 0 -0.22851,-0.0625 c -5.37854,-1.42867 -11.10927,-2.52403 -17.20508,-3.33008 -5.01454,-0.73072 -10.36238,-1.13976 -16.05273,-1.28515 a 215.37188,215.37188 0 0 0 -15.66993,-24.30078 v -16.87305 c 0.37577,0.0215 0.51823,0.0127 0.97852,0.0488 1.02477,0.0804 1.57935,0.39767 -0.0918,-0.1836 a 14.189771,14.189771 0 0 0 4.66211,0.78711 h 1.4961 a 14.189771,14.189771 0 0 0 14.1875,-14.1875 v -16.04101 a 14.189771,14.189771 0 0 0 -12.6211,-14.10157 c -0.98335,-0.10926 -1.94072,-0.17322 -2.93945,-0.21484 -0.903,-0.0376 -1.75865,-0.0586 -2.60156,-0.0586 -3.70131,0 -7.17767,0.79257 -10.53321,1.89648 a 14.189771,14.189771 0 0 0 -6.72461,-1.70898 h -16.83593 a 14.189771,14.189771 0 0 0 -11.6543,6.125 c -7.25801,-5.50113 -16.53721,-7.76172 -25.94727,-7.76172 -1.39157,0 -2.77745,0.0579 -4.15429,0.16015 a 215.37188,215.37188 0 0 0 -99.69336,-24.64648 z m 162.98437,28.42969 c -0.0197,0.007 -0.035,0.0199 -0.0547,0.0273 -0.0247,0.01 -0.0515,0.0139 -0.0762,0.0234 z m -29.83398,6.71289 0.0351,0.0371 c -0.006,-0.006 -0.0133,-0.0113 -0.0195,-0.0176 -0.006,-0.006 -0.01,-0.0136 -0.0156,-0.0195 z m 68.69531,105.5332 c 4.46377,0.6388 8.52883,1.44555 12.15625,2.4043 4.34787,1.23871 8.16642,2.60109 11.40625,4.04101 a 14.189771,14.189771 0 0 0 0.28711,0.125 c 0.75458,0.31556 1.21595,0.55803 1.92773,0.86328 v 6.43165 c -0.6977,-0.43096 -1.24888,-0.90856 -1.96679,-1.33399 a 14.189771,14.189771 0 0 0 -0.0977,-0.0566 c -4.91301,-2.85847 -10.16775,-5.23253 -15.71289,-7.13867 -2.23829,-0.76942 -4.52691,-1.39108 -6.85156,-1.88086 a 215.37188,215.37188 0 0 0 -1.14844,-3.45508 z m -408.76758,15.63086 a 215.37188,215.37188 0 0 0 -8.44922,59.06445 215.37188,215.37188 0 0 0 5.75391,48.28516 c -5.3165,-5.42668 -9.59133,-12.0993 -12.84766,-20.51953 -3.32482,-8.78575 -5.16015,-19.40424 -5.16015,-32.05274 0,-11.66362 1.73623,-21.80873 5.00195,-30.68164 3.28624,-8.92866 7.8686,-16.20841 13.88672,-22.3457 a 14.189771,14.189771 0 0 0 0.004,-0.004 c 0.58566,-0.59773 1.19523,-1.17492 1.81054,-1.74609 z m 434.54492,111.58789 v 5.31055 c -1.07362,0.46796 -2.2474,0.99513 -3.29101,1.44531 -3.18397,1.37348 -6.56109,2.57492 -10.14063,3.59766 a 14.189771,14.189771 0 0 0 -0.0234,0.008 c -3.15964,0.90894 -6.13824,1.65237 -8.96485,2.26758 a 215.37188,215.37188 0 0 0 1.05469,-3.48828 c 1.16188,-0.29131 2.3202,-0.60282 3.46875,-0.95703 6.1433,-1.87257 11.94055,-4.46381 17.27734,-7.76172 0.21913,-0.13011 0.40139,-0.29064 0.61914,-0.42188 z m -330.12695,137.10547 c 0.0338,0.0106 0.0677,0.01101 0.10156,0.02148 0.0289,0.0087 0.0551,0.02653 0.084,0.03516 z"
         id="path4440"
         inkscape:export-xdpi="96"
         inkscape:export-ydpi="96"
         transform="matrix(0.30577441,0,0,0.30577441,126.59426,-1.8261122)" />
      <circle
         transform="matrix(1.1556828,0,0,1.1556828,126.59426,-1.8261122)"
         style="opacity:0.98000004;fill:#f6cd28;fill-opacity:1;stroke:none;stroke-width:6.42546177;stroke-linecap:round;stroke-linejoin:round;stroke-miterlimit:4;stroke-dasharray:none;paint-order:markers stroke fill"
         id="path4303"
         cx="-185.4156"
         cy="-56.33226"
         r="56.98381"
         inkscape:export-xdpi="96"
         inkscape:export-ydpi="96" />
      <text
         id="text4267"
         y="-43.056362"
         x="-165.11826"
         style="font-style:normal;font-variant:normal;font-weight:bold;font-stretch:normal;font-size:10.4122448px;line-height:1.25;font-family:sans-serif;-inkscape-font-specification:'sans-serif Bold';fill:#8d5fd3;fill-opacity:1;stroke:#23252f;stroke-width:8.67687035;stroke-linecap:round;stroke-linejoin:round;stroke-miterlimit:4;stroke-dasharray:none;stroke-opacity:1;paint-order:markers stroke fill"
         xml:space="preserve"
         inkscape:export-xdpi="96"
         inkscape:export-ydpi="96"><tspan
           style="font-style:normal;font-variant:normal;font-weight:bold;font-stretch:normal;font-size:69.41496277px;font-family:sans-serif;-inkscape-font-specification:'sans-serif Bold';fill:#8d5fd3;fill-opacity:1;stroke:#23252f;stroke-width:8.67687035;stroke-linejoin:round;stroke-miterlimit:4;stroke-dasharray:none;stroke-opacity:1"
           y="-43.056362"
           x="-165.11826"
           id="tspan4265"
           sodipodi:role="line">CAC</tspan></text>
      <text
         id="text4271"
         y="-104.3981"
         x="-143.9381"
         style="font-style:normal;font-variant:normal;font-weight:bold;font-stretch:normal;font-size:29.28727531px;line-height:1.25;font-family:sans-serif;-inkscape-font-specification:'sans-serif Bold';fill:#f5900c;fill-opacity:1;stroke:#23252f;stroke-width:7.62303543;stroke-linecap:round;stroke-linejoin:round;stroke-miterlimit:4;stroke-dasharray:none;stroke-opacity:1;paint-order:markers stroke fill"
         xml:space="preserve"
         inkscape:export-xdpi="96"
         inkscape:export-ydpi="96"><tspan
           style="font-style:normal;font-variant:normal;font-weight:bold;font-stretch:normal;font-family:sans-serif;-inkscape-font-specification:'sans-serif Bold';fill:#f5900c;fill-opacity:1;stroke:#23252f;stroke-width:7.62303543;stroke-linejoin:round;stroke-miterlimit:4;stroke-dasharray:none;stroke-opacity:1"
           y="-104.3981"
           x="-143.9381"
           id="tspan4269"
           sodipodi:role="line">sticker</tspan></text>
      <text
         xml:space="preserve"
         style="font-style:normal;font-variant:normal;font-weight:bold;font-stretch:normal;font-size:29.28727531px;line-height:1.25;font-family:sans-serif;-inkscape-font-specification:'sans-serif Bold';fill:#f5900c;fill-opacity:1;stroke:#23252f;stroke-width:7.62303543;stroke-linecap:round;stroke-linejoin:round;stroke-miterlimit:4;stroke-dasharray:none;stroke-opacity:1;paint-order:markers stroke fill"
         x="-127.27094"
         y="-13.098886"
         id="text4315"
         inkscape:export-xdpi="96"
         inkscape:export-ydpi="96"><tspan
           sodipodi:role="line"
           id="tspan4313"
           x="-127.27094"
           y="-13.098886"
           style="font-style:normal;font-variant:normal;font-weight:bold;font-stretch:normal;font-family:sans-serif;-inkscape-font-specification:'sans-serif Bold';fill:#f5900c;fill-opacity:1;stroke:#23252f;stroke-width:7.62303543;stroke-linejoin:round;stroke-miterlimit:4;stroke-dasharray:none;stroke-opacity:1">pack</tspan></text>
    </g>
    <path
       id="path4745"
       d="m -159.42869,36.697472 a 58.696981,58.696981 0 0 0 -58.69735,58.697358 58.696981,58.696981 0 0 0 6.11182,25.9183 c -3.88599,3.74443 -7.79727,8.23695 -8.01522,16.86706 0.42328,12.37797 10.24942,23.68557 26.12711,24.11662 5.54759,0.22869 11.4151,-2.20511 17.07989,-3.56522 3.02235,-0.6858 4.31818,-3.98315 3.0579,-6.47256 a 58.696981,58.696981 0 0 0 14.33585,1.83247 58.696981,58.696981 0 0 0 42.03779,-17.8174 l -40.53795,-11.61258 4.54705,-1.06817 c 5.24417,-1.15006 4.50516,-8.84604 -0.86201,-8.97697 -0.40942,-0.0104 -0.81854,0.0333 -1.21608,0.13185 l -20.37137,4.78464 -12.40097,-3.5525 83.11783,-42.732499 a 58.696981,58.696981 0 0 0 -54.31429,-36.550399 z"
       style="opacity:1;fill:#000000;fill-opacity:1;stroke:#000000;stroke-width:7.79433346;stroke-linecap:round;stroke-linejoin:round;stroke-miterlimit:4;stroke-dasharray:none;stroke-opacity:1;paint-order:markers stroke fill"
       inkscape:connector-curvature="0"
       inkscape:export-xdpi="96"
       inkscape:export-ydpi="96" />
    <path
       style="opacity:1;fill:#f6cd28;fill-opacity:1;stroke:#ffffff;stroke-width:7.79433346;stroke-linecap:round;stroke-linejoin:round;stroke-miterlimit:4;stroke-dasharray:none;stroke-opacity:1;paint-order:markers stroke fill"
       d="m -161.48471,34.641461 a 58.69698,58.69698 0 0 0 -58.69735,58.69735 58.69698,58.69698 0 0 0 6.11182,25.918299 c -3.886,3.74443 -7.79728,8.23696 -8.01523,16.86706 0.42328,12.37797 10.24943,23.68557 26.12713,24.11662 5.54758,0.22869 11.41508,-2.20511 17.07987,-3.56523 3.02236,-0.68579 4.3182,-3.98314 3.05791,-6.47254 a 58.69698,58.69698 0 0 0 14.33585,1.83247 58.69698,58.69698 0 0 0 42.03779,-17.81741 l -40.53795,-11.61259 4.54706,-1.06816 c 5.24415,-1.15006 4.50515,-8.84604 -0.86203,-8.97697 -0.40941,-0.0104 -0.81854,0.0333 -1.21608,0.13185 l -20.37136,4.78464 -12.40098,-3.55251 83.11783,-42.732481 a 58.69698,58.69698 0 0 0 -54.31428,-36.550398 z"
       id="path4730"
       inkscape:connector-curvature="0"
       inkscape:export-xdpi="96"
       inkscape:export-ydpi="96" />
    <g
       id="g4728"
       transform="matrix(1.2951246,0,0,1.2951246,39.849688,-49.832315)"
       inkscape:export-xdpi="96"
       inkscape:export-ydpi="96">
      <path
         style="opacity:1;fill:#f6cd28;fill-opacity:1;stroke:none;stroke-width:14.50287914;stroke-linecap:round;stroke-linejoin:round;stroke-miterlimit:4;stroke-dasharray:none;stroke-opacity:1;paint-order:markers stroke fill"
         d="m -155.45582,65.224474 a 45.321496,45.321496 0 0 0 -45.3215,45.321496 45.321496,45.321496 0 0 0 45.3215,45.32149 45.321496,45.321496 0 0 0 32.45848,-13.7573 l -54.6984,-15.6693 64.17749,-32.994658 a 45.321496,45.321496 0 0 0 -41.93757,-28.221728 z"
         id="path4686"
         inkscape:connector-curvature="0" />
      <circle
         style="opacity:1;fill:#23252f;fill-opacity:1;stroke:none;stroke-width:14.50287914;stroke-linecap:round;stroke-linejoin:round;stroke-miterlimit:4;stroke-dasharray:none;stroke-opacity:1;paint-order:markers stroke fill"
         id="path4691"
         cx="-149.24028"
         cy="87.755821"
         r="7.7693992" />
      <circle
         r="7.7693992"
         cy="102.51771"
         cx="-178.24602"
         id="circle4693"
         style="opacity:1;fill:#23252f;fill-opacity:1;stroke:none;stroke-width:14.50287914;stroke-linecap:round;stroke-linejoin:round;stroke-miterlimit:4;stroke-dasharray:none;stroke-opacity:1;paint-order:markers stroke fill" />
      <path
         sodipodi:nodetypes="ccccccccccccccc"
         id="path4577-3"
         d="m -187.86525,110.67364 c -1.27057,0.002 -2.56439,1.07872 -3.70217,3.70457 6.75197,15.63929 -10.27349,13.11807 -10.67974,29.20368 0.32683,9.55736 7.91388,18.28812 20.17347,18.62094 4.28344,0.17658 8.81374,-1.70249 13.18767,-2.75267 2.82086,-0.64007 3.69757,-4.22765 1.48986,-6.09661 3.66927,-1.53509 3.84385,-6.66885 0.28732,-8.44966 3.45664,-2.17175 2.6385,-7.42483 -1.31487,-8.44256 l 17.63716,-4.14204 c 4.04915,-0.888 3.47842,-6.83033 -0.66572,-6.93143 -0.31612,-0.008 -0.63192,0.0257 -0.93886,0.1018 l -30.51854,7.16789 c -0.72319,-0.23219 -1.36216,-0.57012 -1.85406,-1.07838 6.514,-4.39202 1.88308,-20.91551 -3.10152,-20.90539 z"
         style="color:#000000;font-style:normal;font-variant:normal;font-weight:normal;font-stretch:normal;font-size:medium;line-height:normal;font-family:sans-serif;font-variant-ligatures:normal;font-variant-position:normal;font-variant-caps:normal;font-variant-numeric:normal;font-variant-alternates:normal;font-feature-settings:normal;text-indent:0;text-align:start;text-decoration:none;text-decoration-line:none;text-decoration-style:solid;text-decoration-color:#000000;letter-spacing:normal;word-spacing:normal;text-transform:none;writing-mode:lr-tb;direction:ltr;text-orientation:mixed;dominant-baseline:auto;baseline-shift:baseline;text-anchor:start;white-space:normal;shape-padding:0;clip-rule:nonzero;display:inline;overflow:visible;visibility:visible;opacity:1;isolation:auto;mix-blend-mode:normal;color-interpolation:sRGB;color-interpolation-filters:linearRGB;solid-color:#000000;solid-opacity:1;vector-effect:none;fill:#f5900c;fill-opacity:1;fill-rule:nonzero;stroke:none;stroke-width:7.01316214;stroke-linecap:round;stroke-linejoin:miter;stroke-miterlimit:4;stroke-dasharray:none;stroke-dashoffset:0;stroke-opacity:1;color-rendering:auto;image-rendering:auto;shape-rendering:auto;text-rendering:auto;enable-background:accumulate"
         inkscape:connector-curvature="0" />
    </g>
  </g>
</svg>
